<?xml version="1.0"?>
<svg id="Layer_1" data-name="Layer 1" xmlns="http://www.w3.org/2000/svg" viewBox="0 0 250 75.5">
  <defs>
    
  </defs>
  <g>
    <g>
      <path class="cls-1" d="m0,32.8v-2.7h18.3v2.7h-7.4v18.8h-3.5v-18.8H0Z"></path>
      <path class="cls-1" d="m40.3,32.8h-6.2c-4.3-.2-6.4,1.9-6.6,6.6h12.8v2.7h-12.8c.1,4.5,2.4,6.9,6.4,6.7h6.4v2.7h-7.1c-3.7,0-5.7-.8-7.3-2.8-1.6-2-2.2-4.2-2.2-7.5,0-4.3,1.2-7.3,3.6-9.3,1.6-1.3,3.6-1.8,7-1.8h6.1c-.1,0-.1,2.7-.1,2.7Z"></path>
      <path class="cls-1" d="m64.9,51.6h-6.7c-3.9,0-6-.6-7.7-2.3-1.8-1.8-2.9-4.9-2.9-8.3,0-3.9,1.4-7.5,3.7-9.3,1.5-1.1,3.5-1.6,6.7-1.6h6.9v2.7h-6.7c-2.9,0-4.2.4-5.2,1.6-1.1,1.3-1.8,3.9-1.8,6.7,0,2.6.6,4.7,1.9,6.1,1.1,1.3,2.4,1.7,5.4,1.7h6.4v2.7h0Z"></path>
      <path class="cls-1" d="m90.9,51.6h-3.4v-9.5h-11.3v9.5h-3.4v-21.5h3.4v9.2h11.3v-9.2h3.4v21.5Z"></path>
      <path class="cls-1" d="m103.8,51.6h-3.3v-21.5h4.1l11,17.2v-17.2h3.3v21.5h-4l-11.1-17.2v17.2Z"></path>
      <path class="cls-1" d="m148,40.9c0,3.9-1,6.7-2.9,8.5-1.9,1.6-4.5,2.5-7.6,2.5-3.6,0-6.4-1.1-8-3.1-1.4-1.7-2.2-4.8-2.2-7.9s.9-6.2,2.4-7.9c1.8-2.1,4.6-3.2,8.2-3.2,6.9,0,10.1,3.5,10.1,11.1Zm-17.1-.1c0,5.8,2.1,8.3,6.8,8.3,3,0,5-1.1,5.9-3.1.4-1.1.8-3,.8-5.1,0-2.5-.4-4.8-1.2-5.9-1.1-1.7-2.9-2.6-5.5-2.6-4.7.1-6.8,2.6-6.8,8.4Z"></path>
      <path class="cls-1" d="m159.7,30.1v12.5c0,2.7.3,4,1,4.8,1.1,1,2.4,1.5,4.6,1.4h4.6v2.7h-5.3c-6,.1-8.6-2.6-8.4-8.6v-12.8h3.5Z"></path>
      <path class="cls-1" d="m196.3,40.9c0,3.9-1,6.7-2.9,8.5-1.9,1.6-4.5,2.5-7.6,2.5-3.6,0-6.4-1.1-8-3.1-1.4-1.7-2.2-4.8-2.2-7.9s.9-6.2,2.4-7.9c1.8-2.1,4.6-3.2,8.2-3.2,6.8,0,10.1,3.5,10.1,11.1Zm-17.2-.1c0,5.8,2.1,8.3,6.8,8.3,3,0,5-1.1,5.9-3.1.4-1.1.8-3,.8-5.1,0-2.5-.4-4.8-1.2-5.9-1.1-1.7-2.9-2.6-5.5-2.6-4.7.1-6.8,2.6-6.8,8.4Z"></path>
      <path class="cls-1" d="m222,39.3v12.3h-8c-4.2,0-6-.5-7.8-2.3-1.9-1.8-2.8-4.4-2.8-8.4,0-4.8,1.3-7.9,4-9.5,1.6-1,3.4-1.3,6.8-1.3h7.8v2.7h-7.5c-2.8,0-3.5.1-4.6.8-1.8,1.1-2.7,3.4-2.7,7,0,2.8.3,4.3,1.3,5.8,1.2,1.9,2.6,2.4,6.1,2.4h4.1v-6.8h-6.6v-2.7h9.9Z"></path>
      <path class="cls-1" d="m228.9,30.1h4l6.4,10.2,6.2-10.2h4l-8.6,12.9v8.6h-3.5v-8.6l-8.5-12.9Z"></path>
    </g>
    <g>
      <path class="cls-1" d="m4.5,8.8h8.3V.1h4.5v21.5h-4.5v-9H4.5v9H0V.1h4.5v8.7Z"></path>
      <path class="cls-1" d="m38.9,4.3l3.3,8.3h-6.4l3.1-8.3ZM36.7.1l-9.1,21.5h4.8l1.9-5.1h9.4l2,5.1h5L41.5.1s-4.8,0-4.8,0Z"></path>
      <path class="cls-1" d="m55.8,3.8V0h18.6v3.8h-7v17.8h-4.7V3.8h-6.9Z"></path>
      <path class="cls-1" d="m83.8,3.8V0h18.6v3.8h-7v17.8h-4.7V3.8h-6.9Z"></path>
      <path class="cls-1" d="m116.5,8.8h12.5v3.8h-12.6c0,3.9,1.6,5.3,5.1,5.3h7.4v3.8h-7.6c-2.6,0-4.6-.2-6.7-1.9-2.2-1.8-3.3-4.6-3.3-8.5,0-7.6,3.2-11.1,10.1-11.1h7.5v3.8h-7.4c-3.2-.2-4.9,1.4-5,4.8Z"></path>
      <path class="cls-1" d="m143.1,19.3c-1.6-1.7-1.9-3.6-1.9-6.5V.1h4.5v12.6c0,1.8,0,3.1.8,3.9,1,1.1,2.2,1.4,4.2,1.4h5.3v3.6h-5.7c-3.2,0-5.3-.2-7.2-2.3Z"></path>
      <path class="cls-1" d="m176,4.3l3.3,8.3h-6.4l3.1-8.3Zm-2.2-4.2l-9.1,21.5h4.8l1.9-5.1h9.4l2,5.1h5L178.6.1s-4.8,0-4.8,0Z"></path>
      <path class="cls-1" d="m203.7.1l8.8,15.5-.2-15.5h4.6v21.5h-5.2l-9.3-16.3.2,16.3h-4.6V.1h5.7Z"></path>
      <path class="cls-1" d="m239.8,3.8c4,0,5.3,1.7,5.3,7s-1.3,7-5.3,7h-5.2V3.8h5.2ZM230,.1v21.5h10c2.6,0,4.6-.2,6.7-1.9,2.2-1.8,3.3-4.6,3.3-8.5,0-7.6-3.2-11.1-10.1-11.1,0,0-9.9,0-9.9,0Z"></path>
    </g>
  </g>
  <g>
    <g>
      <path class="cls-2" d="m89.4,64c-1.8,0-2.8,1-3.1,2.3l1.3.4c.2-.8.6-1.5,1.8-1.5,1.1,0,1.6.5,1.6,1.1,0,.7-.6.9-2.2,1.3-1.9.5-2.6,1.1-2.6,2.5,0,1.2.8,2.3,2.7,2.3,1.5,0,2.2-.8,2.3-1.1h0v.8h1.3v-5.2c0-2.1-1.3-2.9-3.1-2.9Zm1.7,5.6c0,.8-.7,1.5-2.1,1.5-1,0-1.4-.4-1.4-1.1,0-.6.2-.9,1.6-1.3,1.6-.4,1.8-.7,1.9-.9h0v1.8h0Z"></path>
      <path class="cls-2" d="m98.2,64c-.9,0-1.8.4-2.2,1h0v-.8h-1.4v7.9h1.4v-5c0-1.1.8-1.8,1.9-1.8,1.2,0,1.7.7,1.7,2v4.8h1.5v-5.2c0-1.8-1.2-2.9-2.9-2.9Z"></path>
      <polygon class="cls-2" points="106.9 72.2 113.3 72.2 113.3 70.8 108.4 70.8 108.4 67.5 112.9 67.5 112.9 66.1 108.4 66.1 108.4 63.1 113.3 63.1 113.3 61.7 106.9 61.7 106.9 72.2"></polygon>
      <polygon class="cls-2" points="120.6 69.3 120.6 69.3 117.4 61.7 115.5 61.7 115.5 72.2 117 72.2 117 64.2 117 64.2 120.4 72.2 120.8 72.2 124.1 64.2 124.2 64.2 124.2 72.2 125.7 72.2 125.7 61.7 123.8 61.7 120.6 69.3"></polygon>
      <path class="cls-2" d="m134.1,66.5h0c.7-.4,1.3-1,1.3-2.1,0-1.5-1.2-2.7-3.1-2.7h-4.1v10.4h3.8c2.8,0,3.8-1.3,3.8-3.1,0-1.4-.9-2.2-1.7-2.5Zm-4.4-3.4h2.4c1.1,0,1.8.5,1.8,1.5,0,.9-.6,1.5-1.8,1.5h-2.4v-3Zm2.1,7.7h-2.1v-3.4h2.1c1.6,0,2.5.4,2.5,1.7,0,1.4-1,1.7-2.5,1.7Z"></path>
      <path class="cls-2" d="m145.3,64.9c0-2.1-1.4-3.2-3.5-3.2h-4.1v10.4h1.5v-4.1h2.1l2.2,4.1h1.6l-2.3-4.2c1.6-.3,2.5-1.2,2.5-3Zm-3.6,1.8h-2.5v-3.6h2.5c1.3,0,2.1.5,2.1,1.8s-.9,1.8-2.1,1.8Z"></path>
      <path class="cls-2" d="m151,61.5c-2.3,0-4.5,1.8-4.5,5.3,0,4,2.2,5.5,4.5,5.5s4.4-1.5,4.4-5.5c0-3.5-2.2-5.3-4.4-5.3Zm0,9.5c-1.6,0-2.9-1.2-2.9-4.2,0-2.7,1.3-3.9,2.9-3.9,1.5,0,2.9,1.3,2.9,4-.1,2.9-1.3,4.1-2.9,4.1Z"></path>
      <polygon class="cls-2" points="163.4 69.5 163.4 69.5 158.9 61.7 157.3 61.7 157.3 72.2 158.8 72.2 158.8 64.4 158.9 64.4 163.4 72.2 164.9 72.2 164.9 61.7 163.4 61.7 163.4 69.5"></polygon>
      <path class="cls-2" d="m174.9,71c-1.6,0-2.9-1.2-2.9-4.1,0-2.7,1.3-3.9,2.9-3.9s2.3,1.2,2.5,2.5l1.5-.2c-.3-2.2-1.8-3.7-4-3.7s-4.5,1.8-4.5,5.3c0,4,2.2,5.5,4.5,5.5s3.9-1.5,4-3.9l-1.6-.2c-.1,1.4-.7,2.7-2.4,2.7Z"></path>
      <path class="cls-2" d="m183.7,64c-1.9,0-3.6,1.5-3.6,4.2s1.6,4.2,3.6,4.2,3.6-1.5,3.6-4.2-1.7-4.2-3.6-4.2Zm0,7.1c-1.2,0-2.2-1-2.2-2.9s.9-2.8,2.2-2.8c1.2,0,2.1,1,2.1,2.8.1,1.9-.8,2.9-2.1,2.9Z"></path>
      <path class="cls-2" d="m196.6,64c-1,0-1.8.6-2.2,1.1h0c-.3-.6-1-1.1-2-1.1-.9,0-1.6.4-2,1h0v-.8h-1.4v7.9h1.4v-5.1c0-.9.5-1.7,1.6-1.7,1,0,1.5.7,1.5,1.8v5h1.4v-5.1c0-1,.6-1.7,1.6-1.7,1.1,0,1.5.7,1.5,1.8v5h1.4v-5.4c.1-1.6-1-2.7-2.8-2.7Z"></path>
      <path class="cls-2" d="m205.3,64c-1.3,0-2,.7-2.2,1h0v-.8h-1.4v11.3h1.4v-4.1h0c.2.3.9,1,2.2,1,1.9,0,3.4-1.6,3.4-4.2s-1.6-4.2-3.4-4.2Zm-.3,7.1c-1.1,0-1.9-.8-1.9-1.7v-2.2c0-.9.7-1.8,1.9-1.8,1.4,0,2.3,1,2.3,2.8s-.9,2.9-2.3,2.9Z"></path>
      <path class="cls-2" d="m213.2,64c-1.8,0-2.8,1-3.1,2.3l1.3.4c.2-.8.6-1.5,1.8-1.5,1.1,0,1.5.5,1.5,1.1,0,.7-.6.9-2.2,1.3-1.9.5-2.6,1.1-2.6,2.5,0,1.2.8,2.3,2.7,2.3,1.5,0,2.2-.8,2.3-1.1h0v.8h1.3v-5.2c0-2.1-1.3-2.9-3-2.9Zm1.6,5.6c0,.8-.7,1.5-2.1,1.5-1,0-1.4-.4-1.4-1.1,0-.6.2-.9,1.6-1.3,1.6-.4,1.8-.7,1.9-.9h0v1.8h0Z"></path>
      <path class="cls-2" d="m222,64c-.9,0-1.8.4-2.2,1h0v-.8h-1.4v7.9h1.5v-5c0-1.1.8-1.8,1.9-1.8,1.2,0,1.7.7,1.7,2v4.8h1.5v-5.2c-.2-1.8-1.3-2.9-3-2.9Z"></path>
      <polygon class="cls-2" points="229.4 69.9 227.2 64.2 225.7 64.2 228.7 71.6 227.1 75.5 228.6 75.5 233 64.2 231.5 64.2 229.4 69.9"></polygon>
    </g>
    <g>
      <polygon class="cls-2" points="244.5 73.6 245.5 73 245.5 67.6 244.5 67 244.5 73.6"></polygon>
      <polygon class="cls-2" points="244.5 65.9 249.5 68.8 249.5 67.6 244.5 64.7 244.5 65.9"></polygon>
      <polygon class="cls-2" points="246.5 72.4 247.5 71.8 247.5 68.7 246.5 68.2 246.5 72.4"></polygon>
      <polygon class="cls-2" points="244.5 61.5 249.5 64.3 249.5 63.2 244.5 60.3 244.5 61.5"></polygon>
      <polygon class="cls-2" points="244.5 63.7 249.5 66.6 249.5 65.4 244.5 62.5 244.5 63.7"></polygon>
      <polygon class="cls-2" points="248.5 71.3 249.5 70.7 249.5 69.9 248.5 69.3 248.5 71.3"></polygon>
      <polygon class="cls-2" points="239.5 64.5 239.5 62.6 238.5 63.2 238.5 63.9 239.5 64.5"></polygon>
      <polygon class="cls-2" points="238.5 70.7 243.5 73.6 243.5 72.4 238.5 69.5 238.5 70.7"></polygon>
      <polygon class="cls-2" points="238.5 68.5 243.5 71.3 243.5 70.2 238.5 67.3 238.5 68.5"></polygon>
      <polygon class="cls-2" points="238.5 66.2 243.5 69.1 243.5 68 238.5 65.1 238.5 66.2"></polygon>
      <polygon class="cls-2" points="241.5 65.7 241.5 61.4 240.5 62 240.5 65.1 241.5 65.7"></polygon>
      <polygon class="cls-2" points="242.5 66.3 243.5 66.8 243.5 60.3 242.5 60.9 242.5 66.3"></polygon>
    </g>
  </g>
</svg>